<?xml version="1.0" encoding="UTF-8" standalone="no"?>
<!DOCTYPE svg PUBLIC "-//W3C//DTD SVG 1.1//EN"
 "http://www.w3.org/Graphics/SVG/1.1/DTD/svg11.dtd">
<!-- Generated by graphviz version 2.47.0 (20210316.0004)
 -->
<!-- Title: dependencies Pages: 1 -->
<svg width="3492pt" height="284pt"
 viewBox="0.00 0.00 3492.00 284.00" xmlns="http://www.w3.org/2000/svg" xmlns:xlink="http://www.w3.org/1999/xlink">
<g id="graph0" class="graph" transform="scale(1 1) rotate(0) translate(4 280)">
<title>dependencies</title>
<polygon fill="white" stroke="transparent" points="-4,4 -4,-280 3488,-280 3488,4 -4,4"/>
<text text-anchor="start" x="1721.01" y="-42.4" font-family="Times-12" font-weight="bold" font-size="14.00">Legend</text>
<polygon fill="#ffffb3" stroke="transparent" points="1508,-10 1508,-30 1528,-30 1528,-10 1508,-10"/>
<text text-anchor="start" x="1531.63" y="-15.4" font-family="Times-12" font-size="14.00"> &#160;Declarations</text>
<polygon fill="#8dd3c7" stroke="transparent" points="1621,-10 1621,-30 1641,-30 1641,-10 1621,-10"/>
<text text-anchor="start" x="1644.73" y="-15.4" font-family="Times-12" font-size="14.00"> &#160;Module</text>
<polygon fill="#80b1d3" stroke="transparent" points="1707,-10 1707,-30 1727,-30 1727,-10 1707,-10"/>
<text text-anchor="start" x="1730.78" y="-15.4" font-family="Times-12" font-size="14.00"> &#160;Bootstrap</text>
<polygon fill="#fdb462" stroke="transparent" points="1804,-10 1804,-30 1824,-30 1824,-10 1804,-10"/>
<text text-anchor="start" x="1827.67" y="-15.4" font-family="Times-12" font-size="14.00"> &#160;Providers</text>
<polygon fill="#fb8072" stroke="transparent" points="1900,-10 1900,-30 1920,-30 1920,-10 1900,-10"/>
<text text-anchor="start" x="1923.73" y="-15.4" font-family="Times-12" font-size="14.00"> &#160;Exports</text>
<g id="clust1" class="cluster">
<title>cluster_AppModule</title>
<polygon fill="none" stroke="black" stroke-dasharray="1,5" points="8,-70 8,-268 3476,-268 3476,-70 8,-70"/>
</g>
<g id="clust23" class="cluster">
<title>cluster_AppModule_imports</title>
<polygon fill="none" stroke="black" points="3324,-78 3324,-130 3468,-130 3468,-78 3324,-78"/>
</g>
<g id="clust25" class="cluster">
<title>cluster_AppModule_bootstrap</title>
<polygon fill="none" stroke="black" points="1747,-208 1747,-260 1871,-260 1871,-208 1747,-208"/>
</g>
<g id="clust2" class="cluster">
<title>cluster_AppModule_declarations</title>
<polygon fill="none" stroke="black" points="16,-78 16,-130 3316,-130 3316,-78 16,-78"/>
</g>
<!-- ActivoFormComponent -->
<g id="node1" class="node">
<title>ActivoFormComponent</title>
<polygon fill="#ffffb3" stroke="black" points="3307.77,-122 3158.23,-122 3158.23,-86 3307.77,-86 3307.77,-122"/>
<text text-anchor="middle" x="3233" y="-99.8" font-family="Times,serif" font-size="14.00">ActivoFormComponent</text>
</g>
<!-- AppModule -->
<g id="node21" class="node">
<title>AppModule</title>
<polygon fill="#8dd3c7" stroke="black" points="1850.66,-187 1847.66,-191 1826.66,-191 1823.66,-187 1767.34,-187 1767.34,-151 1850.66,-151 1850.66,-187"/>
<text text-anchor="middle" x="1809" y="-164.8" font-family="Times,serif" font-size="14.00">AppModule</text>
</g>
<!-- ActivoFormComponent&#45;&gt;AppModule -->
<g id="edge1" class="edge">
<title>ActivoFormComponent&#45;&gt;AppModule</title>
<path fill="none" stroke="black" d="M3233,-122.25C3233,-145.02 3233,-181 3233,-181 3233,-181 1860.85,-181 1860.85,-181"/>
<polygon fill="black" stroke="black" points="1860.85,-177.5 1850.85,-181 1860.85,-184.5 1860.85,-177.5"/>
</g>
<!-- AppComponent -->
<g id="node2" class="node">
<title>AppComponent</title>
<polygon fill="#ffffb3" stroke="black" points="3139.94,-122 3034.06,-122 3034.06,-86 3139.94,-86 3139.94,-122"/>
<text text-anchor="middle" x="3087" y="-99.8" font-family="Times,serif" font-size="14.00">AppComponent</text>
</g>
<!-- AppComponent&#45;&gt;AppModule -->
<g id="edge2" class="edge">
<title>AppComponent&#45;&gt;AppModule</title>
<path fill="none" stroke="black" d="M3087,-122.29C3087,-144.21 3087,-178 3087,-178 3087,-178 1860.79,-178 1860.79,-178"/>
<polygon fill="black" stroke="black" points="1860.79,-174.5 1850.79,-178 1860.79,-181.5 1860.79,-174.5"/>
</g>
<!-- BotonDashComponent -->
<g id="node3" class="node">
<title>BotonDashComponent</title>
<polygon fill="#ffffb3" stroke="black" points="3016.33,-122 2871.67,-122 2871.67,-86 3016.33,-86 3016.33,-122"/>
<text text-anchor="middle" x="2944" y="-99.8" font-family="Times,serif" font-size="14.00">BotonDashComponent</text>
</g>
<!-- BotonDashComponent&#45;&gt;AppModule -->
<g id="edge3" class="edge">
<title>BotonDashComponent&#45;&gt;AppModule</title>
<path fill="none" stroke="black" d="M2944,-122.03C2944,-142.77 2944,-174 2944,-174 2944,-174 1860.74,-174 1860.74,-174"/>
<polygon fill="black" stroke="black" points="1860.74,-170.5 1850.74,-174 1860.74,-177.5 1860.74,-170.5"/>
</g>
<!-- DashboardComponent -->
<g id="node4" class="node">
<title>DashboardComponent</title>
<polygon fill="#ffffb3" stroke="black" points="2853.97,-122 2712.03,-122 2712.03,-86 2853.97,-86 2853.97,-122"/>
<text text-anchor="middle" x="2783" y="-99.8" font-family="Times,serif" font-size="14.00">DashboardComponent</text>
</g>
<!-- DashboardComponent&#45;&gt;AppModule -->
<g id="edge4" class="edge">
<title>DashboardComponent&#45;&gt;AppModule</title>
<path fill="none" stroke="black" d="M2783,-122.31C2783,-142.15 2783,-171 2783,-171 2783,-171 1860.85,-171 1860.85,-171"/>
<polygon fill="black" stroke="black" points="1860.85,-167.5 1850.85,-171 1860.85,-174.5 1860.85,-167.5"/>
</g>
<!-- EdificioFormComponent -->
<g id="node5" class="node">
<title>EdificioFormComponent</title>
<polygon fill="#ffffb3" stroke="black" points="2694.27,-122 2537.73,-122 2537.73,-86 2694.27,-86 2694.27,-122"/>
<text text-anchor="middle" x="2616" y="-99.8" font-family="Times,serif" font-size="14.00">EdificioFormComponent</text>
</g>
<!-- EdificioFormComponent&#45;&gt;AppModule -->
<g id="edge5" class="edge">
<title>EdificioFormComponent&#45;&gt;AppModule</title>
<path fill="none" stroke="black" d="M2616,-122.17C2616,-141.09 2616,-168 2616,-168 2616,-168 1860.69,-168 1860.69,-168"/>
<polygon fill="black" stroke="black" points="1860.69,-164.5 1850.69,-168 1860.69,-171.5 1860.69,-164.5"/>
</g>
<!-- InicioComponent -->
<g id="node6" class="node">
<title>InicioComponent</title>
<polygon fill="#ffffb3" stroke="black" points="2519.99,-122 2406.01,-122 2406.01,-86 2519.99,-86 2519.99,-122"/>
<text text-anchor="middle" x="2463" y="-99.8" font-family="Times,serif" font-size="14.00">InicioComponent</text>
</g>
<!-- InicioComponent&#45;&gt;AppModule -->
<g id="edge6" class="edge">
<title>InicioComponent&#45;&gt;AppModule</title>
<path fill="none" stroke="black" d="M2463,-122.3C2463,-140.27 2463,-165 2463,-165 2463,-165 1860.91,-165 1860.91,-165"/>
<polygon fill="black" stroke="black" points="1860.91,-161.5 1850.91,-165 1860.91,-168.5 1860.91,-161.5"/>
</g>
<!-- LoginComponent -->
<g id="node7" class="node">
<title>LoginComponent</title>
<polygon fill="#ffffb3" stroke="black" points="2388.28,-122 2273.72,-122 2273.72,-86 2388.28,-86 2388.28,-122"/>
<text text-anchor="middle" x="2331" y="-99.8" font-family="Times,serif" font-size="14.00">LoginComponent</text>
</g>
<!-- LoginComponent&#45;&gt;AppModule -->
<g id="edge7" class="edge">
<title>LoginComponent&#45;&gt;AppModule</title>
<path fill="none" stroke="black" d="M2331,-122.04C2331,-138.73 2331,-161 2331,-161 2331,-161 1860.84,-161 1860.84,-161"/>
<polygon fill="black" stroke="black" points="1860.84,-157.5 1850.84,-161 1860.84,-164.5 1860.84,-157.5"/>
</g>
<!-- NumberinputComponent -->
<g id="node8" class="node">
<title>NumberinputComponent</title>
<polygon fill="#ffffb3" stroke="black" points="2255.99,-122 2100.01,-122 2100.01,-86 2255.99,-86 2255.99,-122"/>
<text text-anchor="middle" x="2178" y="-99.8" font-family="Times,serif" font-size="14.00">NumberinputComponent</text>
</g>
<!-- NumberinputComponent&#45;&gt;AppModule -->
<g id="edge8" class="edge">
<title>NumberinputComponent&#45;&gt;AppModule</title>
<path fill="none" stroke="black" d="M2178,-122.28C2178,-137.95 2178,-158 2178,-158 2178,-158 1860.97,-158 1860.97,-158"/>
<polygon fill="black" stroke="black" points="1860.97,-154.5 1850.97,-158 1860.97,-161.5 1860.97,-154.5"/>
</g>
<!-- OrdenTrabajoComponent -->
<g id="node9" class="node">
<title>OrdenTrabajoComponent</title>
<polygon fill="#ffffb3" stroke="black" points="2081.85,-122 1922.15,-122 1922.15,-86 2081.85,-86 2081.85,-122"/>
<text text-anchor="middle" x="2002" y="-99.8" font-family="Times,serif" font-size="14.00">OrdenTrabajoComponent</text>
</g>
<!-- OrdenTrabajoComponent&#45;&gt;AppModule -->
<g id="edge9" class="edge">
<title>OrdenTrabajoComponent&#45;&gt;AppModule</title>
<path fill="none" stroke="black" d="M2002,-122.12C2002,-136.78 2002,-155 2002,-155 2002,-155 1860.88,-155 1860.88,-155"/>
<polygon fill="black" stroke="black" points="1860.88,-151.5 1850.88,-155 1860.88,-158.5 1860.88,-151.5"/>
</g>
<!-- OrdenTrabajoFormComponent -->
<g id="node10" class="node">
<title>OrdenTrabajoFormComponent</title>
<polygon fill="#ffffb3" stroke="black" points="1904.18,-122 1713.82,-122 1713.82,-86 1904.18,-86 1904.18,-122"/>
<text text-anchor="middle" x="1809" y="-99.8" font-family="Times,serif" font-size="14.00">OrdenTrabajoFormComponent</text>
</g>
<!-- OrdenTrabajoFormComponent&#45;&gt;AppModule -->
<g id="edge10" class="edge">
<title>OrdenTrabajoFormComponent&#45;&gt;AppModule</title>
<path fill="none" stroke="black" d="M1809,-122.11C1809,-122.11 1809,-140.99 1809,-140.99"/>
<polygon fill="black" stroke="black" points="1805.5,-140.99 1809,-150.99 1812.5,-140.99 1805.5,-140.99"/>
</g>
<!-- OrdenTrabajoVistaComponent -->
<g id="node11" class="node">
<title>OrdenTrabajoVistaComponent</title>
<polygon fill="#ffffb3" stroke="black" points="1695.89,-122 1506.11,-122 1506.11,-86 1695.89,-86 1695.89,-122"/>
<text text-anchor="middle" x="1601" y="-99.8" font-family="Times,serif" font-size="14.00">OrdenTrabajoVistaComponent</text>
</g>
<!-- OrdenTrabajoVistaComponent&#45;&gt;AppModule -->
<g id="edge11" class="edge">
<title>OrdenTrabajoVistaComponent&#45;&gt;AppModule</title>
<path fill="none" stroke="black" d="M1601,-122.12C1601,-136.78 1601,-155 1601,-155 1601,-155 1756.91,-155 1756.91,-155"/>
<polygon fill="black" stroke="black" points="1756.91,-158.5 1766.91,-155 1756.91,-151.5 1756.91,-158.5"/>
</g>
<!-- PisoFormComponent -->
<g id="node12" class="node">
<title>PisoFormComponent</title>
<polygon fill="#ffffb3" stroke="black" points="1487.78,-122 1352.22,-122 1352.22,-86 1487.78,-86 1487.78,-122"/>
<text text-anchor="middle" x="1420" y="-99.8" font-family="Times,serif" font-size="14.00">PisoFormComponent</text>
</g>
<!-- PisoFormComponent&#45;&gt;AppModule -->
<g id="edge12" class="edge">
<title>PisoFormComponent&#45;&gt;AppModule</title>
<path fill="none" stroke="black" d="M1420,-122.28C1420,-137.95 1420,-158 1420,-158 1420,-158 1757,-158 1757,-158"/>
<polygon fill="black" stroke="black" points="1757,-161.5 1767,-158 1757,-154.5 1757,-161.5"/>
</g>
<!-- RegistroComponent -->
<g id="node13" class="node">
<title>RegistroComponent</title>
<polygon fill="#ffffb3" stroke="black" points="1334.27,-122 1205.73,-122 1205.73,-86 1334.27,-86 1334.27,-122"/>
<text text-anchor="middle" x="1270" y="-99.8" font-family="Times,serif" font-size="14.00">RegistroComponent</text>
</g>
<!-- RegistroComponent&#45;&gt;AppModule -->
<g id="edge13" class="edge">
<title>RegistroComponent&#45;&gt;AppModule</title>
<path fill="none" stroke="black" d="M1270,-122.04C1270,-138.73 1270,-161 1270,-161 1270,-161 1757.15,-161 1757.15,-161"/>
<polygon fill="black" stroke="black" points="1757.15,-164.5 1767.15,-161 1757.15,-157.5 1757.15,-164.5"/>
</g>
<!-- SectorFormComponent -->
<g id="node14" class="node">
<title>SectorFormComponent</title>
<polygon fill="#ffffb3" stroke="black" points="1187.93,-122 1040.07,-122 1040.07,-86 1187.93,-86 1187.93,-122"/>
<text text-anchor="middle" x="1114" y="-99.8" font-family="Times,serif" font-size="14.00">SectorFormComponent</text>
</g>
<!-- SectorFormComponent&#45;&gt;AppModule -->
<g id="edge14" class="edge">
<title>SectorFormComponent&#45;&gt;AppModule</title>
<path fill="none" stroke="black" d="M1114,-122.3C1114,-140.27 1114,-165 1114,-165 1114,-165 1757.09,-165 1757.09,-165"/>
<polygon fill="black" stroke="black" points="1757.09,-168.5 1767.09,-165 1757.09,-161.5 1757.09,-168.5"/>
</g>
<!-- TagFormComponent -->
<g id="node15" class="node">
<title>TagFormComponent</title>
<polygon fill="#ffffb3" stroke="black" points="1022.93,-122 889.07,-122 889.07,-86 1022.93,-86 1022.93,-122"/>
<text text-anchor="middle" x="956" y="-99.8" font-family="Times,serif" font-size="14.00">TagFormComponent</text>
</g>
<!-- TagFormComponent&#45;&gt;AppModule -->
<g id="edge15" class="edge">
<title>TagFormComponent&#45;&gt;AppModule</title>
<path fill="none" stroke="black" d="M956,-122.17C956,-141.09 956,-168 956,-168 956,-168 1757.28,-168 1757.28,-168"/>
<polygon fill="black" stroke="black" points="1757.28,-171.5 1767.28,-168 1757.28,-164.5 1757.28,-171.5"/>
</g>
<!-- TareaFormComponent -->
<g id="node16" class="node">
<title>TareaFormComponent</title>
<polygon fill="#ffffb3" stroke="black" points="871.52,-122 728.48,-122 728.48,-86 871.52,-86 871.52,-122"/>
<text text-anchor="middle" x="800" y="-99.8" font-family="Times,serif" font-size="14.00">TareaFormComponent</text>
</g>
<!-- TareaFormComponent&#45;&gt;AppModule -->
<g id="edge16" class="edge">
<title>TareaFormComponent&#45;&gt;AppModule</title>
<path fill="none" stroke="black" d="M800,-122.31C800,-142.15 800,-171 800,-171 800,-171 1757.25,-171 1757.25,-171"/>
<polygon fill="black" stroke="black" points="1757.25,-174.5 1767.25,-171 1757.25,-167.5 1757.25,-174.5"/>
</g>
<!-- TextinputComponent -->
<g id="node17" class="node">
<title>TextinputComponent</title>
<polygon fill="#ffffb3" stroke="black" points="709.77,-122 574.23,-122 574.23,-86 709.77,-86 709.77,-122"/>
<text text-anchor="middle" x="642" y="-99.8" font-family="Times,serif" font-size="14.00">TextinputComponent</text>
</g>
<!-- TextinputComponent&#45;&gt;AppModule -->
<g id="edge17" class="edge">
<title>TextinputComponent&#45;&gt;AppModule</title>
<path fill="none" stroke="black" d="M642,-122.03C642,-142.77 642,-174 642,-174 642,-174 1757.12,-174 1757.12,-174"/>
<polygon fill="black" stroke="black" points="1757.12,-177.5 1767.12,-174 1757.12,-170.5 1757.12,-177.5"/>
</g>
<!-- TipoTareaFormComponent -->
<g id="node18" class="node">
<title>TipoTareaFormComponent</title>
<polygon fill="#ffffb3" stroke="black" points="555.97,-122 386.03,-122 386.03,-86 555.97,-86 555.97,-122"/>
<text text-anchor="middle" x="471" y="-99.8" font-family="Times,serif" font-size="14.00">TipoTareaFormComponent</text>
</g>
<!-- TipoTareaFormComponent&#45;&gt;AppModule -->
<g id="edge18" class="edge">
<title>TipoTareaFormComponent&#45;&gt;AppModule</title>
<path fill="none" stroke="black" d="M471,-122.29C471,-144.21 471,-178 471,-178 471,-178 1757.12,-178 1757.12,-178"/>
<polygon fill="black" stroke="black" points="1757.12,-181.5 1767.12,-178 1757.12,-174.5 1757.12,-181.5"/>
</g>
<!-- UbicacionFormComponent -->
<g id="node19" class="node">
<title>UbicacionFormComponent</title>
<polygon fill="#ffffb3" stroke="black" points="367.7,-122 198.3,-122 198.3,-86 367.7,-86 367.7,-122"/>
<text text-anchor="middle" x="283" y="-99.8" font-family="Times,serif" font-size="14.00">UbicacionFormComponent</text>
</g>
<!-- UbicacionFormComponent&#45;&gt;AppModule -->
<g id="edge19" class="edge">
<title>UbicacionFormComponent&#45;&gt;AppModule</title>
<path fill="none" stroke="black" d="M283,-122.25C283,-145.02 283,-181 283,-181 283,-181 1756.99,-181 1756.99,-181"/>
<polygon fill="black" stroke="black" points="1756.99,-184.5 1766.99,-181 1756.99,-177.5 1756.99,-184.5"/>
</g>
<!-- UsuarioFormComponent -->
<g id="node20" class="node">
<title>UsuarioFormComponent</title>
<polygon fill="#ffffb3" stroke="black" points="179.98,-122 24.02,-122 24.02,-86 179.98,-86 179.98,-122"/>
<text text-anchor="middle" x="102" y="-99.8" font-family="Times,serif" font-size="14.00">UsuarioFormComponent</text>
</g>
<!-- UsuarioFormComponent&#45;&gt;AppModule -->
<g id="edge20" class="edge">
<title>UsuarioFormComponent&#45;&gt;AppModule</title>
<path fill="none" stroke="black" d="M102,-122.15C102,-145.76 102,-184 102,-184 102,-184 1757.23,-184 1757.23,-184"/>
<polygon fill="black" stroke="black" points="1757.23,-187.5 1767.23,-184 1757.23,-180.5 1757.23,-187.5"/>
</g>
<!-- AppComponent  -->
<g id="node23" class="node">
<title>AppComponent </title>
<polygon fill="#80b1d3" stroke="black" points="1863.44,-252 1754.56,-252 1754.56,-216 1863.44,-216 1863.44,-252"/>
<text text-anchor="middle" x="1809" y="-229.8" font-family="Times,serif" font-size="14.00">AppComponent </text>
</g>
<!-- AppModule&#45;&gt;AppComponent  -->
<g id="edge22" class="edge">
<title>AppModule&#45;&gt;AppComponent </title>
<path fill="none" stroke="black" stroke-dasharray="1,5" d="M1809,-187.11C1809,-187.11 1809,-205.99 1809,-205.99"/>
<polygon fill="black" stroke="black" points="1805.5,-205.99 1809,-215.99 1812.5,-205.99 1805.5,-205.99"/>
</g>
<!-- AppRoutingModule -->
<g id="node22" class="node">
<title>AppRoutingModule</title>
<polygon fill="#8dd3c7" stroke="black" points="3460.27,-122 3457.27,-126 3436.27,-126 3433.27,-122 3331.73,-122 3331.73,-86 3460.27,-86 3460.27,-122"/>
<text text-anchor="middle" x="3396" y="-99.8" font-family="Times,serif" font-size="14.00">AppRoutingModule</text>
</g>
<!-- AppRoutingModule&#45;&gt;AppModule -->
<g id="edge21" class="edge">
<title>AppRoutingModule&#45;&gt;AppModule</title>
<path fill="none" stroke="black" d="M3396,-122.15C3396,-145.76 3396,-184 3396,-184 3396,-184 1861.04,-184 1861.04,-184"/>
<polygon fill="black" stroke="black" points="1861.04,-180.5 1851.04,-184 1861.04,-187.5 1861.04,-180.5"/>
</g>
</g>
</svg>
